<?xml version="1.0" encoding="utf-8"?>
<!-- Generator: Adobe Illustrator 24.3.0, SVG Export Plug-In . SVG Version: 6.00 Build 0)  -->
<svg version="1.1" xmlns="http://www.w3.org/2000/svg" xmlns:xlink="http://www.w3.org/1999/xlink" x="0px" y="0px"
	 viewBox="0 0 240.391 226.414" enable-background="new 0 0 240.391 226.414" xml:space="preserve">
<g id="Layer_1">
	<defs>
		<script  language="JavaScript"></script>
	</defs>
	<script  type="text/JavaScript">
		<![CDATA[
function notify( ref, type ) {
    var event = document.createEvent("CustomEvent");
    event.initEvent(type,true,true);
    ref.dispatchEvent(event);
}

		
		
		
		
		
		
		
		
		
		
		
			]]>
	</script>
	<g>
		<g>
			<path fill="#EA8E10" d="M168.027,16.669c-13.312-2.005-30.541-3.215-49.379-3.215c-17.388,0-33.399,1.03-46.229,2.765V40.46
				H36.651v93.13h167.141V40.91h-35.765V16.669L168.027,16.669z"/>
		</g>
		<path fill="#231F20" d="M168.027,47.872V16.768c18.291,3.174,30.136,8.172,30.136,13.814c3.105,0,5.629,2.596,5.629,5.802v11.488
			H168.027z"/>
		<path fill="#231F20" d="M72.416,47.374V16.269c-18.291,3.175-30.136,8.173-30.136,13.815c-3.105,0-5.632,2.594-5.632,5.801v11.488
			L72.416,47.374L72.416,47.374z"/>
	</g>
	<path fill="#F5A909" d="M213.099,132.777c-4.225-4.224-12.777-4.512-19.145-8.106c-25.554-14.445-43.263-19.029-73.162-19.029
		c-0.188,0-0.381,0.002-0.568,0.004c-0.188-0.001-0.385-0.004-0.569-0.004c-29.899,0-47.606,4.584-73.161,19.029
		c-6.367,3.597-14.923,3.886-19.146,8.106c-12.045,12.046-4.393,37.98-4.393,37.98c0,0.695,0.555,1.248,1.241,1.248h96.024h96.027
		c0.688,0,1.244-0.553,1.244-1.248C217.491,170.756,225.146,144.823,213.099,132.777z"/>
	<path fill="#F5A909" d="M143.33,14.193c0-2.861-9.302-9.327-23.238-9.327c-13.922,0-22.979,6.466-22.979,9.327"/>
	<path fill="#231F20" d="M216.017,172.004h-18.505h-39.844h-75.73H42.692H24.43c-0.729,0-1.311,0.83-1.311,1.861l3.521,8.496
		c0,1.078,0.562,1.967,1.252,1.967h13.404v26.131c0,0.854,0.625,1.549,1.395,1.549h39.246c0.768,0,1.393-0.694,1.393-1.549v-16.332
		h72.936v16.332c0,0.854,0.619,1.549,1.404,1.549h39.844c0.779,0,1.398-0.694,1.398-1.549v-26.131h13.629
		c0.699,0,1.266-0.889,1.266-1.967l3.518-8.496C217.322,172.835,216.73,172.004,216.017,172.004z"/>
	<path fill="#12100B" stroke="#4D4947" stroke-width="6" d="M162.683,155.443c0,3.901-3.162,7.063-7.063,7.063H84.824
		c-3.902,0-7.064-3.162-7.064-7.063v-26.56c0-3.907,3.162-7.069,7.064-7.069h70.795c3.901,0,7.063,3.162,7.063,7.069V155.443
		L162.683,155.443z"/>
	<path fill="#D0D0D0" stroke="#231F20" stroke-width="4" d="M213.375,147.778c0,8.426-6.817,15.258-15.256,15.258
		c-8.41,0-15.248-6.83-15.248-15.258c0-8.424,6.838-15.255,15.248-15.255C206.558,132.524,213.375,139.354,213.375,147.778z"/>
	<path fill="#FFFFFF" stroke="#231F20" stroke-width="2" d="M207.566,147.778c0,5.217-4.222,9.443-9.442,9.443
		c-5.207,0-9.439-4.229-9.439-9.443c0-5.214,4.232-9.441,9.439-9.441C203.344,138.336,207.566,142.564,207.566,147.778z"/>
	<path fill="#D0D0D0" stroke="#231F20" stroke-width="4" d="M57.572,147.778c0,8.426-6.817,15.258-15.259,15.258
		c-8.409,0-15.248-6.83-15.248-15.258c0-8.424,6.839-15.255,15.248-15.255C50.752,132.524,57.572,139.354,57.572,147.778z"/>
	<path fill="#FFFFFF" stroke="#231F20" stroke-width="2" d="M51.758,147.778c0,5.217-4.221,9.443-9.443,9.443
		c-5.207,0-9.438-4.229-9.438-9.443c0-5.214,4.23-9.441,9.438-9.441C47.539,138.336,51.758,142.564,51.758,147.778z"/>
	<line fill="none" stroke="#4D4947" stroke-width="5" x1="79.829" y1="138.493" x2="160.615" y2="138.493"/>
	<line fill="none" stroke="#4D4947" stroke-width="5" x1="79.829" y1="130.113" x2="160.615" y2="130.113"/>
	<line fill="none" stroke="#4D4947" stroke-width="5" x1="79.829" y1="146.874" x2="160.615" y2="146.874"/>
	<line fill="none" stroke="#4D4947" stroke-width="5" x1="79.829" y1="155.254" x2="160.615" y2="155.254"/>
	<g>
		<path fill="#FFFFFF" d="M115.518,91.793c0,0.688-0.555,1.249-1.244,1.249H43.561c-0.688,0-1.246-0.562-1.246-1.249V57.367
			c0-0.688,0.561-1.25,1.246-1.25h70.713c0.689,0,1.244,0.562,1.244,1.25V91.793z"/>
		<path fill="#FFFFFF" d="M198.121,91.793c0,0.688-0.556,1.249-1.242,1.249h-70.701c-0.692,0-1.264-0.562-1.264-1.249V57.367
			c0-0.688,0.567-1.25,1.264-1.25h70.701c0.689,0,1.242,0.562,1.242,1.25V91.793z"/>
	</g>
	<g>
		<path fill="#231F20" d="M28.248,86.558c0,0.682-0.549,1.243-1.236,1.243H10.2c-0.684,0-1.248-0.562-1.248-1.243V62.517
			c0-0.689,0.564-1.243,1.248-1.243h16.811c0.689,0,1.236,0.554,1.236,1.243V86.558z"/>
		<path fill="none" stroke="#13110C" stroke-width="6" d="M18.602,87.801c0,5.763,7.994,10.417,17.886,10.417"/>
	</g>
	<g>
		<path fill="#231F20" d="M212.144,86.558c0,0.682,0.565,1.243,1.241,1.243h16.812c0.677,0,1.242-0.562,1.242-1.243V62.517
			c0-0.689-0.565-1.243-1.242-1.243h-16.812c-0.676,0-1.241,0.554-1.241,1.243V86.558z"/>
		<path fill="none" stroke="#13110C" stroke-width="6" d="M221.795,87.801c0,5.763-7.994,10.417-17.883,10.417"/>
	</g>
	<path fill="#E30613" stroke="#DD1215" stroke-width="0.2339" d="M173.45,34.682c0,5.866,4.735,10.608,10.596,10.608
		c5.854,0,10.602-4.742,10.602-10.608c0-5.839-4.748-10.596-10.602-10.596C178.187,24.086,173.45,28.843,173.45,34.682z"/>
	<path fill="#E30613" stroke="#DD1215" stroke-width="0.2339" d="M44.561,34.682c0,5.866,4.744,10.608,10.584,10.608
		c5.863,0,10.613-4.742,10.613-10.608c0-5.839-4.75-10.596-10.613-10.596C49.305,24.086,44.561,28.843,44.561,34.682z"/>
	<image overflow="visible" width="299" height="168" xlink:href="Unknown.jpeg"  transform="matrix(1 0 0 1 1130.1956 246.707)">
	</image>
	<g>
		<path d="M83.824,25.742h-4.74v-1.711H90.62v1.711h-4.762v13.87h-2.034V25.742z"/>
		<path d="M93.145,34.711l-1.618,4.901h-2.081l5.294-15.581h2.427l5.317,15.581h-2.15l-1.665-4.901H93.145z M98.254,33.14
			l-1.526-4.486c-0.346-1.016-0.578-1.942-0.808-2.843h-0.047c-0.231,0.925-0.485,1.873-0.786,2.821l-1.526,4.508H98.254z"/>
		<path d="M112.987,39.612L111,36.167c-0.809-1.318-1.318-2.173-1.803-3.075h-0.046c-0.44,0.902-0.878,1.735-1.687,3.098
			l-1.873,3.421h-2.311l4.762-7.883l-4.577-7.698h2.334l2.057,3.653c0.578,1.017,1.017,1.803,1.433,2.635h0.07
			c0.44-0.925,0.832-1.641,1.41-2.635l2.127-3.653h2.311l-4.739,7.582l4.854,7.999H112.987z"/>
		<path d="M119.676,24.031v15.581h-2.011V24.031H119.676z"/>
		<path d="M127.84,32.608v1.502h-5.71v-1.502H127.84z"/>
		<path d="M130.294,24.216c0.97-0.162,2.242-0.3,3.861-0.3c1.988,0,3.445,0.462,4.369,1.295c0.855,0.74,1.364,1.872,1.364,3.259
			c0,1.41-0.416,2.519-1.202,3.329c-1.063,1.132-2.797,1.71-4.762,1.71c-0.601,0-1.156-0.023-1.618-0.138v6.242h-2.011V24.216z
			 M132.305,31.729c0.439,0.116,0.994,0.162,1.664,0.162c2.427,0,3.907-1.179,3.907-3.329c0-2.057-1.456-3.051-3.675-3.051
			c-0.879,0-1.549,0.07-1.895,0.162V31.729z"/>
		<path d="M144.61,24.031v15.581h-2.011V24.031H144.61z"/>
		<path d="M159.985,38.918c-0.902,0.324-2.681,0.856-4.785,0.856c-2.359,0-4.3-0.601-5.826-2.057
			c-1.34-1.295-2.173-3.375-2.173-5.802c0.024-4.646,3.213-8.045,8.438-8.045c1.802,0,3.213,0.393,3.883,0.716l-0.486,1.641
			c-0.832-0.37-1.872-0.67-3.445-0.67c-3.791,0-6.264,2.358-6.264,6.264c0,3.954,2.381,6.288,6.01,6.288
			c1.318,0,2.219-0.184,2.681-0.416v-4.646h-3.167v-1.618h5.132V38.918z"/>
	</g>
</g>
<g id="Capa_4">
</g>
<g id="Capa_2">
	<path fill="none" stroke="#13110C" stroke-width="6" d="M186.508,93.009c0-9.027-9.754-15.581-18.487-15.581
		c-8.732,0-18.476,6.668-18.476,15.581"/>
	<rect x="124.547" y="93.173" fill="#EA8E10" width="42.72" height="8.527"/>
	<path fill="#DCAFE2" d="M152.232,71.226c3.162,3.234-4.913,11.651-11.447,11.651s-12.215-5.422-12.215-11.651
		s4.307-10.873,10.841-10.873S147.777,66.669,152.232,71.226z"/>
	<path fill="#515151" d="M133.764,80.258c0.11,0.084,0.216,0.162,0.319,0.244c0.549,0.436,1.167,0.767,1.819,1.03
		c0.662,0.267,1.339,0.507,2.022,0.721c0.512,0.16,1.05,0.232,1.59,0.255c0.521,0.022,1.044,0.053,1.565,0.043
		c1.482-0.027,2.899-0.326,4.218-0.99c0.523-0.263,1.002-0.592,1.449-0.963c0.031-0.026,0.064-0.049,0.108-0.083
		c0.156,0.234,0.301,0.464,0.459,0.685c0.775,1.078,1.281,2.276,1.718,3.503c0.34,0.954,0.666,1.913,0.955,2.881
		c0.163,0.546,0.243,1.115,0.35,1.676c0.148,0.77,0.296,1.54,0.425,2.312c0.06,0.359,0.124,0.723,0.069,1.09
		c-0.002,0.016-0.002,0.032-0.005,0.048c-0.039,0.22-0.05,0.24-0.285,0.245c-1.125,0.022-2.25,0.055-3.375,0.053
		c-5.649-0.008-11.298-0.026-16.946-0.037c-0.143,0-0.207-0.03-0.237-0.17c-0.029-0.136-0.044-0.264-0.019-0.403
		c0.18-0.985,0.333-1.974,0.536-2.955c0.44-2.125,1.019-4.216,1.772-6.26c0.263-0.715,0.654-1.374,1.024-2.042
		C133.455,80.855,133.603,80.562,133.764,80.258z"/>
	<path d="M146.238,75.162c-0.013,0.676-0.161,1.261-0.607,1.735c-0.728,0.775-1.615,1.292-2.716,1.426
		c-1.028,0.125-1.976-0.078-2.827-0.648c-0.46-0.309-0.824-0.71-1.13-1.158c-0.056-0.081-0.09-0.182-0.111-0.278
		c-0.034-0.154,0.046-0.294,0.187-0.362c0.12-0.058,0.271-0.034,0.383,0.071c0.062,0.059,0.116,0.127,0.164,0.197
		c0.463,0.681,1.084,1.178,1.901,1.416c0.705,0.206,1.411,0.184,2.101-0.09c0.471-0.187,0.911-0.417,1.272-0.767
		c0.38-0.369,0.605-0.809,0.631-1.329c0.009-0.171-0.02-0.344-0.018-0.516c0.001-0.198,0.128-0.342,0.311-0.389
		c0.106-0.027,0.182,0.002,0.242,0.082C146.168,74.749,146.27,74.961,146.238,75.162z"/>
	<path d="M138.834,68.561c0.001-0.304,0.26-0.551,0.578-0.551c0.319,0.001,0.576,0.248,0.576,0.553c0,0.307-0.257,0.55-0.578,0.549
		C139.087,69.111,138.833,68.867,138.834,68.561z"/>
	<path d="M143.048,67.012c0-0.295,0.244-0.529,0.551-0.528c0.308,0.001,0.55,0.236,0.548,0.531
		c-0.002,0.289-0.242,0.519-0.545,0.522C143.295,67.54,143.048,67.306,143.048,67.012z"/>
	<ellipse fill="#DCAFE2" cx="132.187" cy="62.768" rx="2.236" ry="4.379"/>
	<ellipse fill="#DCAFE2" cx="139.411" cy="61.465" rx="2.236" ry="4.379"/>
	<ellipse fill="#BB90C4" cx="149.662" cy="71.615" rx="4.594" ry="2.132"/>
	<path d="M151.168,71.614c0-0.2,0.17-0.362,0.378-0.361c0.209,0,0.377,0.163,0.377,0.363c0,0.201-0.168,0.361-0.378,0.36
		C151.333,71.975,151.167,71.816,151.168,71.614z"/>
	<path d="M148.817,71.716c0-0.2,0.17-0.362,0.378-0.361c0.209,0,0.377,0.163,0.377,0.363c0,0.201-0.168,0.361-0.378,0.36
		C148.983,72.077,148.817,71.917,148.817,71.716z"/>
</g>
</svg>
